<svg xmlns="http://www.w3.org/2000/svg" version="1.1" xmlns:xlink="http://www.w3.org/1999/xlink" width="1000" height="1000"><g clip-path="url(#SvgjsClipPath3487)"><rect width="1000" height="1000" fill="#1a1a1a"></rect><g transform="matrix(0.2986857825567503,0,0,0.2986857825567503,254.4802867383512,250)"><svg xmlns="http://www.w3.org/2000/svg" version="1.1" xmlns:xlink="http://www.w3.org/1999/xlink" width="1644.77pt" height="1674.77pt"><svg xmlns="http://www.w3.org/2000/svg" xmlns:xlink="http://www.w3.org/1999/xlink" xmlns:krita="http://krita.org/namespaces/svg/krita" xmlns:sodipodi="http://sodipodi.sourceforge.net/DTD/sodipodi-0.dtd" width="1644.77pt" height="1674.77pt" viewBox="0 0 1644.77 1674.77">
<defs><clipPath id="SvgjsClipPath3487"><rect width="1000" height="1000" x="0" y="0" rx="150" ry="150"></rect></clipPath></defs>
<path id="shape0" transform="matrix(0.999999988125239 0 0 0.999999988125239 5.07662948780005 4.39867077423476)" fill="#d77a3e" fill-rule="evenodd" stroke="#000000" stroke-width="11.9983335647817" stroke-linecap="square" stroke-linejoin="bevel" d="M643.71 518.641C679.63 310.126 777.755 162.501 938.084 75.7657C1098.41 -10.9694 1256.55 -23.235 1412.5 38.969C1515.7 89.7667 1581.32 153.715 1609.36 230.812C1651.41 346.459 1666.45 509.515 1444.13 684.922C1141.96 805.791 984.746 931.496 972.48 1062.04C960.214 1192.58 985.113 1341.34 797.467 1551.58C672.37 1691.74 465.989 1698.33 178.323 1571.35C16.3561 1446.03 -35.2775 1291.37 23.422 1107.39C111.471 831.413 355.856 784.798 371.626 779.541C387.396 774.284 617.328 725.974 643.71 518.641Z" sodipodi:nodetypes="czczczzczcc"></path><text id="shape01" krita:userichtext="true" krita:textversion="2" transform="matrix(0.999984369850661 0 0 0.925182389428761 201.949398209193 1442.50230062666)" fill="#000000" stroke-opacity="0" stroke="#000000" stroke-width="0" stroke-linecap="square" stroke-linejoin="bevel" font-family="Herculanum" font-size="800" font-size-adjust="0.602347" font-stretch="normal" font-style="italic" letter-spacing="0" word-spacing="0"><tspan x="0">#</tspan></text><text id="shape02" krita:userichtext="true" krita:textversion="2" transform="matrix(0.99998440213047 0 0 0.925182419293939 386.720645769416 1124.04916582384)" fill="#000000" stroke-opacity="0" stroke="#000000" stroke-width="0" stroke-linecap="square" stroke-linejoin="bevel" font-family="Herculanum" font-size="800" font-size-adjust="0.602347" font-stretch="normal" font-style="italic" letter-spacing="0" word-spacing="0"><tspan x="0">#</tspan></text><text id="shape01" krita:userichtext="true" krita:textversion="2" transform="matrix(0.999984424122174 0 0 0.925182439640594 577.263518779276 808.037858411308)" fill="#000000" stroke-opacity="0" stroke="#000000" stroke-width="0" stroke-linecap="square" stroke-linejoin="bevel" font-family="Herculanum" font-size="800" font-size-adjust="0.602347" font-stretch="normal" font-style="italic" letter-spacing="0" word-spacing="0"><tspan x="0">#</tspan></text><text id="shape02" krita:userichtext="true" krita:textversion="2" transform="matrix(0.999984427519165 0 0 0.92518244278348 676.552174847928 649.044500845008)" fill="#000000" stroke-opacity="0" stroke="#000000" stroke-width="0" stroke-linecap="square" stroke-linejoin="bevel" font-family="Herculanum" font-size="800" font-size-adjust="0.602347" font-stretch="normal" font-style="italic" letter-spacing="0" word-spacing="0"><tspan x="0">#</tspan></text><text id="shape03" krita:userichtext="true" krita:textversion="2" transform="matrix(0.965910728724152 0.23945482257762 -0.258814999722194 0.89365756397707 1030.12109600548 557.429625527806)" fill="#000000" stroke-opacity="0" stroke="#000000" stroke-width="0" stroke-linecap="square" stroke-linejoin="bevel" font-family="Herculanum" font-size="800" font-size-adjust="0.602347" font-stretch="normal" font-style="italic" letter-spacing="0" word-spacing="0"><tspan x="0">!</tspan></text>
</svg></svg></g></g></svg>